#!OML:ASF C:\ViconDB\ViconDB\414\Spring2016\042216\male.ASF
:FULLY-SPECIFIED
:DEGREES
1016
root 37.4362 17.3638 5.01743 -540.222 20.4712 -182.085
lowerback -3.15304 -1.87812 2.33326
upperback -0.490755 -2.55643 -1.02122
thorax 1.11354 -1.26282 -2.45584
lowerneck -1.0479 5.6233 -3.31351
upperneck 5.48224 8.1876 -5.17045
head 1.99217 4.02094 -0.894999
rclavicle 1.26172e-013 1.31198e-014
rhumerus -30.918 -1.87653 -93.5308
rradius 29.6793
rwrist 25.6665
rhand 11.1013 -21.9073
rfingers 7.12502
rthumb 36.1701 -48.1818
lclavicle 1.26172e-013 1.31198e-014
lhumerus -36.7227 12.7368 88.083
lradius 32.9692
lwrist -9.00957
lhand -14.5265 16.2491
lfingers 7.12502
lthumb 11.6214 45.9068
rfemur -5.15399 21.7925 18.3907
rtibia 27.1491
rfoot -28.4365 -34.6838
rtoes -8.72481
lfemur -6.70489 -7.70355 -19.8219
ltibia 27.5328
lfoot -28.2035 29.3426
ltoes -13.0302
1017
root 37.4191 17.3617 5.01 -540.244 20.4803 -182.108
lowerback -3.13158 -1.87774 2.29771
upperback -0.489919 -2.55365 -1.05286
thorax 1.10266 -1.2616 -2.46751
lowerneck -1.02725 5.6423 -3.33059
upperneck 5.48724 8.20624 -5.10015
head 1.98597 4.03075 -0.870534
rclavicle 1.75955e-014 1.98785e-015
rhumerus -30.9814 -1.79135 -93.7519
rradius 29.74
rwrist 25.4667
rhand 11.2163 -21.9279
rfingers 7.12502
rthumb 36.279 -48.1754
lclavicle 1.75955e-014 1.98785e-015
lhumerus -36.6771 12.8071 88.0532
lradius 32.9137
lwrist -9.12928
lhand -14.9019 15.8129
lfingers 7.12502
lthumb 11.2594 45.4907
rfemur -5.08923 21.9159 18.3243
rtibia 27.0957
rfoot -28.4801 -34.8004
rtoes -8.82026
lfemur -6.67825 -7.64504 -19.9095
ltibia 27.5462
lfoot -28.3435 29.2677
ltoes -13.0047
1018
root 37.4023 17.3594 5.00155 -540.234 20.5419 -181.933
lowerback -3.08037 -1.86205 2.35576
upperback -0.459508 -2.53651 -0.958953
thorax 1.10799 -1.25312 -2.40173
lowerneck -1.05218 5.62465 -3.40147
upperneck 5.49003 8.18914 -5.11423
head 1.98872 4.02098 -0.862893
rclavicle -1.66234e-014 1.59028e-015
rhumerus -31.0323 -1.55609 -93.8954
rradius 29.8146
rwrist 25.2726
rhand 11.3542 -22.0968
rfingers 7.12502
rthumb 36.4096 -48.3116
lclavicle -1.66234e-014 1.59028e-015
lhumerus -36.5878 12.9145 88.1442
lradius 33.0054
lwrist -8.6725
lhand -14.7512 15.8838
lfingers 7.12502
lthumb 11.4047 45.5536
rfemur -4.97527 22.1809 18.5098
rtibia 27.0385
rfoot -28.5558 -35.0056
rtoes -8.7424
lfemur -6.62729 -7.44421 -19.7685
ltibia 27.5831
lfoot -28.4265 29.0747
ltoes -13.089
1019
root 37.3835 17.3615 4.99394 -540.165 20.5731 -181.822
lowerback -3.08431 -1.86334 2.49848
upperback -0.465551 -2.54277 -0.975953
thorax 1.09661 -1.25597 -2.49933
lowerneck -1.10385 5.6508 -3.38429
upperneck 5.53095 8.22389 -5.06591
head 2.00985 4.03655 -0.847632
rclavicle 4.48694e-014 -2.78299e-015
rhumerus -31.0496 -1.6237 -94.0805
rradius 29.7472
rwrist 25.3593
rhand 11.398 -21.7787
rfingers 7.12502
rthumb 36.4511 -47.9831
lclavicle 4.48694e-014 -2.78299e-015
lhumerus -36.6245 12.9724 88.1255
lradius 33.2262
lwrist -8.51472
lhand -14.9674 16.0234
lfingers 7.12502
lthumb 11.1962 45.7047
rfemur -4.9647 22.3926 18.569
rtibia 26.9713
rfoot -28.5981 -35.1435
rtoes -8.5947
lfemur -6.70043 -7.14787 -19.6718
ltibia 27.633
lfoot -28.5135 28.7883
ltoes -13.0834
1020
root 37.3673 17.36 4.98853 -540.153 20.5704 -181.791
lowerback -3.08567 -1.8833 2.48713
upperback -0.447371 -2.56965 -0.965092
thorax 1.1154 -1.2691 -2.48324
lowerneck -1.11837 5.65767 -3.34679
upperneck 5.50565 8.23502 -5.12351
head 2.00892 4.04217 -0.871348
rclavicle 1.00871e-013 9.14409e-015
rhumerus -31.0317 -1.73561 -94.2292
rradius 29.6531
rwrist 25.372
rhand 11.2804 -21.7869
rfingers 7.12502
rthumb 36.3397 -48.0193
lclavicle 1.00871e-013 9.14409e-015
lhumerus -36.5071 12.9011 88.2083
lradius 33.1625
lwrist -8.43361
lhand -14.4924 16.1728
lfingers 7.12502
lthumb 11.6543 45.8286
rfemur -4.92564 22.4438 18.5455
rtibia 26.8941
rfoot -28.5127 -35.2181
rtoes -8.78999
lfemur -6.72367 -7.06935 -19.6883
ltibia 27.6937
lfoot -28.5506 28.6824
ltoes -13.049
1021
root 37.3483 17.3624 4.98462 -540.096 20.5854 -181.776
lowerback -3.05412 -1.85701 2.55215
upperback -0.465024 -2.53468 -1.02343
thorax 1.07625 -1.25198 -2.57674
lowerneck -1.14658 5.63691 -3.27362
upperneck 5.50574 8.20168 -5.10528
head 2.01576 4.02532 -0.8774
rclavicle -3.05973e-014 -1.98785e-016
rhumerus -31.1053 -1.82744 -94.4163
rradius 29.6177
rwrist 25.4291
rhand 11.1994 -21.9031
rfingers 7.12502
rthumb 36.263 -48.1546
lclavicle -3.05973e-014 -1.98785e-016
lhumerus -36.4454 12.6227 88.2851
lradius 33.2433
lwrist -8.08384
lhand -14.4848 16.2349
lfingers 7.12502
lthumb 11.6616 45.8904
rfemur -4.98762 22.3623 18.4353
rtibia 26.8273
rfoot -28.39 -35.1377
rtoes -8.81463
lfemur -6.8267 -7.10741 -19.7351
ltibia 27.7535
lfoot -28.5484 28.7071
ltoes -13.0633
1022
root 37.3294 17.3638 4.98241 -540.063 20.5599 -181.706
lowerback -2.9561 -1.86632 2.59676
upperback -0.496138 -2.54624 -1.005
thorax 0.987609 -1.25946 -2.57862
lowerneck -1.08285 5.61483 -3.31111
upperneck 5.46898 8.16633 -5.08804
head 1.98951 4.00965 -0.869281
rclavicle 7.10966e-015 1.39149e-015
rhumerus -31.2272 -1.57184 -94.6052
rradius 29.6665
rwrist 24.9382
rhand 11.2164 -22.1094
rfingers 7.12502
rthumb 36.2791 -48.3568
lclavicle 7.10966e-015 1.39149e-015
lhumerus -36.4959 12.6458 88.3217
lradius 33.3084
lwrist -8.10943
lhand -14.2864 16.2377
lfingers 7.12502
lthumb 11.853 45.8822
rfemur -5.01459 22.2157 18.4026
rtibia 26.7946
rfoot -28.2944 -35.0316
rtoes -8.85819
lfemur -6.8669 -7.18779 -19.7351
ltibia 27.7941
lfoot -28.6406 28.7202
ltoes -12.9878
1023
root 37.3124 17.3647 4.98201 -540.011 20.5576 -181.599
lowerback -2.85768 -1.87189 2.60912
upperback -0.518016 -2.55269 -0.937391
thorax 0.91222 -1.26433 -2.51197
lowerneck -1.07214 5.60056 -3.38286
upperneck 5.44309 8.14719 -5.07914
head 1.97535 4.00032 -0.855976
rclavicle 2.88145e-014 8.54774e-015
rhumerus -31.2682 -1.76571 -94.593
rradius 29.5411
rwrist 25.2647
rhand 11.3784 -21.8042
rfingers 7.12502
rthumb 36.4325 -48.0133
lclavicle 2.88145e-014 8.54774e-015
lhumerus -36.504 12.7182 88.3833
lradius 33.3132
lwrist -8.32203
lhand -13.992 16.278
lfingers 7.12502
lthumb 12.1368 45.906
rfemur -5.04368 22.197 18.4385
rtibia 26.7532
rfoot -28.1503 -35.0753
rtoes -8.88397
lfemur -6.94116 -6.93952 -19.6537
ltibia 27.8386
lfoot -28.5588 28.5041
ltoes -12.9729
1024
root 37.2938 17.3647 4.97845 -540.042 20.5998 -181.65
lowerback -2.74152 -1.88308 2.56804
upperback -0.53496 -2.56284 -0.981338
thorax 0.828979 -1.27098 -2.52948
lowerneck -1.05635 5.61562 -3.38705
upperneck 5.4065 8.15524 -5.00681
head 1.95675 4.00539 -0.833729
rclavicle -8.63098e-014 7.25564e-015
rhumerus -31.3237 -1.84422 -94.759
rradius 29.4017
rwrist 25.4163
rhand 11.3579 -21.7235
rfingers 7.12502
rthumb 36.4131 -47.9375
lclavicle -8.63098e-014 7.25564e-015
lhumerus -36.4725 12.658 88.3785
lradius 33.226
lwrist -8.43166
lhand -13.9186 16.1942
lfingers 7.12502
lthumb 12.2076 45.8179
rfemur -5.01301 22.3356 18.3299
rtibia 26.7013
rfoot -28.1943 -35.1207
rtoes -8.84405
lfemur -6.97164 -6.71164 -19.7563
ltibia 27.8896
lfoot -28.4712 28.3651
ltoes -13.0887
1025
root 37.2754 17.3678 4.97714 -539.987 20.6013 -181.64
lowerback -2.67712 -1.91191 2.50957
upperback -0.57258 -2.59807 -0.936273
thorax 0.75686 -1.29016 -2.44805
lowerneck -1.02637 5.62494 -3.38227
upperneck 5.36306 8.17078 -5.08817
head 1.94189 4.01442 -0.861102
rclavicle -7.00095e-015 -2.98177e-016
rhumerus -31.4097 -1.80169 -94.8045
rradius 29.3042
rwrist 25.7712
rhand 11.3738 -21.66
rfingers 7.12502
rthumb 36.4281 -47.8702
lclavicle -7.00095e-015 -2.98177e-016
lhumerus -36.449 12.5613 88.5224
lradius 33.2131
lwrist -8.21509
lhand -14.0035 16.287
lfingers 7.12502
lthumb 12.1257 45.9156
rfemur -5.07521 22.4531 18.2518
rtibia 26.6532
rfoot -28.112 -35.2489
rtoes -8.85136
lfemur -7.10393 -6.60981 -19.7936
ltibia 27.946
lfoot -28.4215 28.2997
ltoes -13.0973
1026
root 37.2596 17.3718 4.97594 -539.916 20.6391 -181.538
lowerback -2.62339 -1.88625 2.59017
upperback -0.572402 -2.56523 -0.928278
thorax 0.725766 -1.27426 -2.48199
lowerneck -1.04897 5.59474 -3.4114
upperneck 5.30339 8.12152 -5.04416
head 1.92227 3.9901 -0.843906
rclavicle 4.805e-014 3.97569e-016
rhumerus -31.4673 -1.77206 -94.9016
rradius 29.307
rwrist 25.9182
rhand 11.3763 -21.5886
rfingers 7.12502
rthumb 36.4306 -47.7982
lclavicle 4.805e-014 3.97569e-016
lhumerus -36.4199 12.49 88.5842
lradius 33.2279
lwrist -8.3484
lhand -14.0205 16.3835
lfingers 7.12502
lthumb 12.1094 46.0131
rfemur -5.1351 22.446 18.2752
rtibia 26.6147
rfoot -27.9626 -35.2635
rtoes -8.99333
lfemur -7.1838 -6.71908 -19.7511
ltibia 27.9915
lfoot -28.3796 28.4171
ltoes -13.134
